General
Complete name                            : Marley.2012.BDRip.576p.x264-HANDJOB.mkv
Format                                   : Matroska
Format version                           : Version 2
File size                                : 3.15 GiB
Duration                                 : 2h 25mn
Overall bit rate                         : 3 108 Kbps
Writing application                      : HandBrake 0.9.8
Writing library                          : libmkv 0.6.5

Video
ID                                       : 1
Format                                   : AVC
Format/Info                              : Advanced Video Codec
Format profile                           : High@L4.0
Format settings, CABAC                   : Yes
Format settings, ReFrames                : 12 frames
Codec ID                                 : V_MPEG4/ISO/AVC
Duration                                 : 2h 25mn
Bit rate                                 : 2 598 Kbps
Width                                    : 1 024 pixels
Height                                   : 576 pixels
Display aspect ratio                     : 16:9
Frame rate                               : 23.976 fps
Color space                              : YUV
Chroma subsampling                       : 4:2:0
Bit depth                                : 8 bits
Scan type                                : Progressive
Bits/(Pixel*Frame)                       : 0.184
Stream size                              : 2.63 GiB (84%)
Writing library                          : x264 core 120
Encoding settings                        : cabac=1 / ref=12 / deblock=1:-2:-2 / analyse=0x3:0x133 / me=umh / subme=9 / psy=1 / psy_rd=1.00:0.00 / mixed_ref=1 / me_range=32 / chroma_me=1 / trellis=2 / 8x8dct=1 / cqm=0 / deadzone=21,11 / fast_pskip=0 / chroma_qp_offset=-2 / threads=6 / sliced_threads=0 / nr=0 / decimate=1 / interlaced=0 / bluray_compat=0 / constrained_intra=0 / bframes=16 / b_pyramid=2 / b_adapt=2 / b_bias=0 / direct=3 / weightb=1 / open_gop=0 / weightp=2 / keyint=240 / keyint_min=24 / scenecut=40 / intra_refresh=0 / rc_lookahead=60 / rc=crf / mbtree=1 / crf=21.0 / qcomp=0.60 / qpmin=3 / qpmax=69 / qpstep=4 / ip_ratio=1.40 / aq=1:1.20
Language                                 : English
Default                                  : Yes
Forced                                   : No
Color primaries                          : BT.709-5, BT.1361, IEC 61966-2-4, SMPTE RP177
Transfer characteristics                 : BT.709-5, BT.1361
Matrix coefficients                      : BT.709-5, BT.1361, IEC 61966-2-4 709, SMPTE RP177

Audio
ID                                       : 2
Format                                   : AC-3
Format/Info                              : Audio Coding 3
Mode extension                           : CM (complete main)
Format settings, Endianness              : Big
Codec ID                                 : A_AC3
Duration                                 : 2h 25mn
Bit rate mode                            : Constant
Bit rate                                 : 448 Kbps
Channel(s)                               : 6 channels
Channel positions                        : Front: L C R, Side: L R, LFE
Sampling rate                            : 48.0 KHz
Bit depth                                : 16 bits
Compression mode                         : Lossy
Stream size                              : 465 MiB (14%)
Language                                 : English
Default                                  : Yes
Forced                                   : No

Menu
00:00:00.000                             : 00:00:00.000
00:08:58.412                             : 00:08:58.412
00:19:49.688                             : 00:19:49.688
00:26:43.852                             : 00:26:43.852
00:38:57.209                             : 00:38:57.209
00:46:48.764                             : 00:46:48.764
00:57:43.084                             : 00:57:43.084
01:04:31.158                             : 01:04:31.158
01:11:28.325                             : 01:11:28.325
01:20:45.131                             : 01:20:45.131
01:32:29.293                             : 01:32:29.293
01:42:09.373                             : 01:42:09.373
01:51:55.750                             : 01:51:55.750
01:59:53.311                             : 01:59:53.311
02:13:04.476                             : 02:13:04.476
02:20:46.312                             : 02:20:46.312